<?xml version="1.0" encoding="UTF-8"?>
<svg width="48px" height="50px" viewBox="0 0 48 50" version="1.1" xmlns="http://www.w3.org/2000/svg" xmlns:xlink="http://www.w3.org/1999/xlink">
    <!-- Generator: Sketch 46.2 (44496) - http://www.bohemiancoding.com/sketch -->
    <title>btnOk</title>
    <desc>Created with Sketch.</desc>
    <defs></defs>
    <g id="Home" stroke="none" stroke-width="1" fill="none" fill-rule="evenodd" stroke-linecap="round" stroke-linejoin="round">
        <g id="Procelar---Home" transform="translate(-201.000000, -1355.000000)" stroke-width="1.44" stroke="#334D5E">
            <g id="Fácil-de-Usar" transform="translate(202.000000, 1356.000000)">
                <g id="btnOk">
                    <path d="M36.5714286,47.6543931 L24.3531323,47.9945173 C19.7095753,48.124436 13.4442989,45.9333353 9.84399539,42.7072644 C9.26409039,42.1875896 3.4520896,41.3409284 0,41.2942161 L0.0273404345,22.2005472 C5.39901633,19.2795662 17.7496979,19.0416252 25.4755291,7.99853617 L28.0714314,0.902639804 C28.7966724,-1.07679559 32.6444788,0.536239889 33.3841095,2.50837648 C34.1179843,4.46591547 34.1611534,8.78242762 33.1452404,10.6436224 L29.251387,17.7701737" id="Stroke-1"></path>
                    <path d="M43.4285714,20.3134076 L43.4285714,20.8294495 C43.4285714,22.5734549 42.0398941,24 40.3509267,24 L31.6503846,24 C29.9614172,24 28.5714286,22.5694022 28.5714286,20.8294495 L28.5714286,20.3134076 C28.5714286,18.5734549 29.9574833,17.1428571 31.6503846,17.1428571 L40.3509267,17.1428571 C42.043828,17.1428571 43.4285714,18.5694022 43.4285714,20.3134076 Z" id="Stroke-3"></path>
                    <path d="M45.7142857,28.3134076 L45.7142857,28.8280986 C45.7142857,30.572104 44.1719242,32 42.2978095,32 L30.8435926,32 C28.9709329,32 27.4285714,30.5667004 27.4285714,28.8280986 L27.4285714,28.3134076 C27.4285714,26.5748058 28.9651127,25.1428571 30.8435926,25.1428571 L42.2978095,25.1428571 C44.1777444,25.1428571 45.7142857,26.5680513 45.7142857,28.3134076 Z" id="Stroke-5"></path>
                    <path d="M43.4285714,36.3134076 L43.4285714,36.8294495 C43.4285714,38.5734549 41.8710152,40 39.9733877,40 L32.0266123,40 C30.1304569,40 28.5714286,38.5694022 28.5714286,36.8294495 L28.5714286,36.3134076 C28.5714286,34.572104 30.1260404,33.1428571 32.0266123,33.1428571 L39.9733877,33.1428571 C41.8739596,33.1428571 43.4285714,34.5694022 43.4285714,36.3134076 Z" id="Stroke-7"></path>
                    <path d="M40,43.1705505 L40,43.6865924 C40,45.4292469 38.4949498,46.8571429 36.6675917,46.8571429 L30.7609797,46.8571429 C28.9336216,46.8571429 27.4285714,45.4238433 27.4285714,43.6865924 L27.4285714,43.1705505 C27.4285714,41.4319487 28.9279422,40 30.7609797,40 L36.6675917,40 C38.5006293,40 40,41.4265451 40,43.1705505 Z" id="Stroke-9"></path>
                    <path d="M28.5714286,19.4285714 C27.1649514,25.3883061 24.1616467,28.8315195 19.4285714,29.7142857" id="Stroke-11"></path>
                </g>
            </g>
        </g>
    </g>
</svg>