<?xml version="1.0" encoding="UTF-8"?>
<svg width="51px" height="49px" viewBox="0 0 51 49" version="1.1" xmlns="http://www.w3.org/2000/svg" xmlns:xlink="http://www.w3.org/1999/xlink">
    <!-- Generator: Sketch 46.2 (44496) - http://www.bohemiancoding.com/sketch -->
    <title>btnTime2</title>
    <desc>Created with Sketch.</desc>
    <defs></defs>
    <g id="Home" stroke="none" stroke-width="1" fill="none" fill-rule="evenodd">
        <g id="Procelar---Home" transform="translate(-1002.000000, -1354.000000)" stroke-width="2" stroke="#505050">
            <g id="Uso-Diario" transform="translate(1003.000000, 1355.000000)">
                <g id="btnTime2">
                    <path d="M23.4146341,46.8292683 C10.4827317,46.8292683 0,36.3465366 0,23.4146341 C0,10.4827317 10.4827317,0 23.4146341,0 C36.3465366,0 46.8292683,10.4827317 46.8292683,23.4146341 L46.8292683,28.097561" id="Stroke-1"></path>
                    <path d="M37.4634146,46.8292683 L28.097561,46.8292683 L28.097561,45.6585366 L31.9949268,42.1159024 C33.1925854,41.0259512 33.8505366,40.1923902 34.3317073,39.6152195 C34.8140488,39.0380488 35.0774634,38.4866341 35.3045854,37.9598049 C35.5293659,37.4341463 35.5972683,36.8827317 35.5972683,36.305561 C35.5972683,35.4661463 35.022439,33.8318049 32.7418537,33.2546341 C30.4612683,32.6786341 28.3492683,33.7720976 27.0099512,35.8044878" id="Stroke-3"></path>
                    <polyline id="Stroke-5" points="49.1707317 43.3170732 39.804878 43.3170732 39.804878 41.4380488 45.0029268 32.7804878 46.8292683 32.7804878 46.8292683 48"></polyline>
                    <polyline id="Stroke-7" points="36.9704195 11.091161 23.4145171 24.6470634 16.0201756 17.252722"></polyline>
                </g>
            </g>
        </g>
    </g>
</svg>