<?xml version="1.0" encoding="UTF-8"?>
<svg width="53px" height="50px" viewBox="0 0 53 50" version="1.1" xmlns="http://www.w3.org/2000/svg" xmlns:xlink="http://www.w3.org/1999/xlink">
    <!-- Generator: Sketch 46.2 (44496) - http://www.bohemiancoding.com/sketch -->
    <title>btnTime</title>
    <desc>Created with Sketch.</desc>
    <defs></defs>
    <g id="Home" stroke="none" stroke-width="1" fill="none" fill-rule="evenodd">
        <g id="Procelar---Home" transform="translate(-589.000000, -1354.000000)" stroke-width="2" stroke="#505050">
            <g id="Rápida-Absorción" transform="translate(589.000000, 1355.000000)">
                <g id="btnTime">
                    <path d="M5.45454545,17.4545455 L21.8181818,17.4545455" id="Stroke-1"></path>
                    <g id="Group-28">
                        <path d="M0,26.1818182 L18.5454545,26.1818182" id="Stroke-2"></path>
                        <path d="M3.27272727,34.9090909 L19.6363636,34.9090909" id="Stroke-4"></path>
                        <polyline id="Stroke-6" points="30.5454545 4.36363636 26.1818182 4.36363636 26.1818182 0 37.0909091 0 37.0909091 4.36363636 32.7272727 4.36363636"></polyline>
                        <path d="M33.8181818,6.54545455 L33.8181818,8.85490909 C43.6352727,9.94145455 51.2727273,18.2574545 51.2727273,28.3636364 C51.2727273,39.2083636 42.4810909,48 31.6363636,48 L14.1818182,48" id="Stroke-8"></path>
                        <path d="M14.6252727,38.1788727 C15.9103636,40.4010545 17.6176364,42.3472364 19.638,43.9094182" id="Stroke-10"></path>
                        <path d="M12.0297818,29.4548727 C12.1323273,31.3279636 12.4977818,33.1323273 13.0890545,34.8297818" id="Stroke-12"></path>
                        <path d="M13.5412364,20.7271636 C12.8190545,22.4355273 12.3314182,24.2671636 12.1197818,26.1817091" id="Stroke-14"></path>
                        <path d="M29.4545455,6.54545455 L29.4545455,8.85490909 C23.5363636,9.51054545 18.4112727,12.792 15.2727273,17.5101818" id="Stroke-16"></path>
                        <path d="M34.9090909,28.3636364 C34.9090909,30.1712727 33.444,31.6363636 31.6363636,31.6363636 C29.8287273,31.6363636 28.3636364,30.1712727 28.3636364,28.3636364 C28.3636364,26.556 29.8287273,25.0909091 31.6363636,25.0909091 C33.444,25.0909091 34.9090909,26.556 34.9090909,28.3636364 Z" id="Stroke-18"></path>
                        <path d="M33.8181818,26.1818182 L42.5454545,17.4545455" id="Stroke-20"></path>
                        <path d="M50.1818182,12 L46.9090909,8.72727273" id="Stroke-22"></path>
                        <path d="M44.7272727,14.1818182 L48,10.9090909" id="Stroke-24"></path>
                        <path d="M44.8654909,20.7266182 C46.1647636,22.9728 46.9087636,25.5811636 46.9087636,28.3640727 C46.9087636,36.7989818 40.0709455,43.6368 31.6360364,43.6368 L27.2724,43.6368" id="Stroke-26"></path>
                    </g>
                </g>
            </g>
        </g>
    </g>
</svg>