<?xml version="1.0" encoding="utf-8"?>
<!-- Generator: Adobe Illustrator 18.1.1, SVG Export Plug-In . SVG Version: 6.00 Build 0)  -->
<svg version="1.1" id="Layer_1" xmlns="http://www.w3.org/2000/svg" xmlns:xlink="http://www.w3.org/1999/xlink" x="0px" y="0px"
	 viewBox="-1000 745 47 47" enable-background="new -1000 745 47 47" xml:space="preserve">
<title>Page 1</title>
<desc>Created with Sketch.</desc>
<g id="Home">
	<g id="Umbrella---Home" transform="translate(-206.000000, -2032.000000)">
		<g id="Page-1" transform="translate(206.000000, 2032.000000)">
			<g id="Group-3">
				<g id="Clip-2">
				</g>
				<defs>
					<filter id="Adobe_OpacityMaskFilter" filterUnits="userSpaceOnUse" x="-1000" y="745.3" width="46.7" height="46.7">
						<feColorMatrix  type="matrix" values="1 0 0 0 0  0 1 0 0 0  0 0 1 0 0  0 0 0 1 0"/>
					</filter>
				</defs>
				<mask maskUnits="userSpaceOnUse" x="-1000" y="745.3" width="46.7" height="46.7" id="mask-2">
					<g filter="url(#Adobe_OpacityMaskFilter)">
						<polygon id="path-1" fill="#FFFFFF" points="-953.3,792 -1000,792 -1000,745.3 -953.3,745.3 						"/>
					</g>
				</mask>
				<path id="Fill-1" mask="url(#mask-2)" fill="#FFFFFF" d="M-976.6,747.9c-5.6,0-10.8,2.2-14.7,6.1c-3.9,3.9-6,9.1-6,14.6
					c0,11.4,9.3,20.7,20.7,20.7c11.4,0,20.7-9.3,20.7-20.7C-955.9,757.2-965.2,747.9-976.6,747.9 M-976.6,792
					c-12.9,0-23.4-10.5-23.4-23.4c0-6.2,2.4-12.1,6.7-16.5c4.4-4.4,10.3-6.9,16.6-6.9c12.9,0,23.4,10.5,23.4,23.4
					C-953.3,781.5-963.7,792-976.6,792"/>
			</g>
			<path id="Fill-4" fill="#FFFFFF" d="M-980.1,764.3h-2.5v4.2h2.5v12.2h4.9v-12.4h3.4l0.4-4.1h-3.8V762c0-1,0.3-1.4,1.2-1.4h2.6
				v-4.4h-3.4c-3.7,0-5.3,1.6-5.3,4.7C-980.1,763.7-980.1,764.3-980.1,764.3"/>
		</g>
	</g>
</g>
</svg>
