<?xml version="1.0" encoding="UTF-8"?>
<svg width="236px" height="62px" viewBox="0 0 236 62" version="1.1" xmlns="http://www.w3.org/2000/svg" xmlns:xlink="http://www.w3.org/1999/xlink">
    <!-- Generator: Sketch 46.2 (44496) - http://www.bohemiancoding.com/sketch -->
    <title>procelarLogo</title>
    <desc>Created with Sketch.</desc>
    <defs>
        <polygon id="path-1" points="14.7375811 0.3198 0 0.3198 0 40.3276 29.4751622 40.3276 29.4751622 0.3198 14.7375811 0.3198"></polygon>
        <polygon id="path-3" points="0.0388424242 30 25.7360925 30 25.7360925 0.0253783784 0.0388424242 0.0253783784"></polygon>
        <polygon id="path-5" points="0 41 235 41 235 0 0 0"></polygon>
        <polygon id="path-7" points="0 0.263953846 0 7 6.84001818 7 6.84001818 0.263953846"></polygon>
        <polygon id="path-9" points="6.95920909 7 0.492481818 7 0.492481818 0.263953846 6.95920909 0.263953846"></polygon>
        <polygon id="path-11" points="6.61678182 7 0.150054545 7 0.150054545 0.263953846 6.61678182 0.263953846 6.61678182 7"></polygon>
        <polygon id="path-13" points="0 9 234 9 234 0 0 0"></polygon>
    </defs>
    <g id="Home" stroke="none" stroke-width="1" fill="none" fill-rule="evenodd">
        <g id="Procelar---Home" transform="translate(-156.000000, -30.000000)">
            <g id="HEADER">
                <g id="procelarLogo" transform="translate(156.000000, 30.000000)">
                    <g id="Page-1" transform="translate(2.000000, 0.000000)">
                        <g id="Group-3">
                            <mask id="mask-2" fill="white">
                                <use xlink:href="#path-1"></use>
                            </mask>
                            <g id="Clip-2"></g>
                            <path d="M5.26354054,19.4832 L15.5689459,19.4832 C21.4975946,19.53896 24.2121892,16.90512 24.2121892,12.14256 C24.2121892,7.38 21.4975946,4.80274 15.5689459,4.80274 L5.26354054,4.80274 L5.26354054,19.4832 Z M-0.000243243243,0.3198 L17.3421892,0.3198 C25.2094865,0.3198 29.4751622,4.74698 29.4751622,12.14256 C29.4751622,19.53896 25.2094865,24.0219 17.3421892,23.96614 L5.26354054,23.96614 L5.26354054,40.3276 L-0.000243243243,40.3276 L-0.000243243243,0.3198 Z" id="Fill-1" fill="#FEFEFE" mask="url(#mask-2)"></path>
                        </g>
                        <path d="M36,10.6890202 L40.412192,10.6890202 L40.412192,16.869141 L40.521952,16.869141 C42.7833315,12.1633221 45.9268266,9.83862096 51,10.0087008 L51,15.1110962 C43.44512,15.1110962 40.6882062,19.5331722 40.6882062,26.9602686 L40.6882062,40 L36,40 L36,10.6890202 Z" id="Fill-4" fill="#FEFEFE"></path>
                        <path d="M68,35.8409976 C72.964319,35.8409976 76.9801772,31.9587211 76.9801772,25.0275914 C76.9801772,18.0404674 72.964319,14.1590024 68,14.1590024 C63.035681,14.1590024 59.020639,18.0404674 59.020639,25.0275914 C59.020639,31.9587211 63.035681,35.8409976 68,35.8409976 M68,10 C77.1466884,10 82,16.5984094 82,25.0275914 C82,33.4007791 77.1466884,40 68,40 C58.8533116,40 54,33.4007791 54,25.0275914 C54,16.5984094 58.8533116,10 68,10" id="Fill-6" fill="#FEFEFE"></path>
                        <path d="M108.966123,19.870973 C108.247229,16.2663313 105.757815,14.1597014 101.884855,14.1597014 C95.0804583,14.1597014 92.9788268,19.5382618 92.9788268,25.3607076 C92.9788268,30.6280938 95.3573297,35.8411101 101.331922,35.8411101 C105.867916,35.8411101 108.578341,33.1794206 109.187134,28.8541751 L114,28.8541751 C112.949184,35.8411101 108.578341,40 101.387782,40 C92.6460954,40 88,33.9000243 88,25.3607076 C88,16.765398 92.4250841,10 101.497883,10 C107.970357,10 113.170196,13.0503936 113.834849,19.870973 L108.966123,19.870973 Z" id="Fill-8" fill="#FEFEFE"></path>
                        <g id="Group-12" transform="translate(119.000000, 10.000000)">
                            <mask id="mask-4" fill="white">
                                <use xlink:href="#path-3"></use>
                            </mask>
                            <g id="Clip-11"></g>
                            <path d="M20.874297,12.2702432 C20.6592061,7.78240541 17.3745394,4.18078378 12.8521152,4.18078378 C8.06102424,4.18078378 5.20732727,7.89348649 4.88508485,12.2702432 L20.874297,12.2702432 Z M25.2887818,20.2486216 C24.0502364,26.5648378 19.6357515,30.0002432 13.3910242,30.0002432 C4.50769091,30.0002432 0.307509091,23.684027 0.0388424242,14.9297027 C0.0388424242,6.34159459 5.53035758,0.0253783784 13.1215697,0.0253783784 C22.9739939,0.0253783784 25.9892061,9.4997027 25.7197515,16.4256486 L4.88508485,16.4256486 C4.72278182,21.4121351 7.46853939,25.8448378 13.5525394,25.8448378 C17.3209636,25.8448378 19.9587818,23.9605135 20.7671455,20.2486216 L25.2887818,20.2486216 Z" id="Fill-10" fill="#FEFEFE" mask="url(#mask-4)"></path>
                        </g>
                        <mask id="mask-6" fill="white">
                            <use xlink:href="#path-5"></use>
                        </mask>
                        <g id="Clip-14"></g>
                        <polygon id="Fill-13" fill="#FEFEFE" mask="url(#mask-6)" points="152 40 157 40 157 0 152 0"></polygon>
                        <path d="M183.333333,24.5285111 C181.5,25.8593919 177.944715,25.9145748 174.777236,26.4696494 C171.666667,27.0239126 169,28.1332504 169,31.6268124 C169,34.7316598 171.666667,35.8409976 174.555285,35.8409976 C180.778049,35.8409976 183.333333,31.9587211 183.333333,29.3529539 L183.333333,24.5285111 Z M191,39.2241939 C190.166667,39.7224627 189.111382,40 187.611382,40 C185.166667,40 183.611382,38.6691192 183.611382,35.5634603 C181,38.6139364 177.5,40 173.5,40 C168.278049,40 164,37.6709587 164,31.9587211 C164,25.4714889 168.833333,24.0846137 173.722764,23.1424475 C178.944715,22.144287 183.388618,22.4770071 183.388618,18.9282623 C183.388618,14.8244428 180,14.1590024 177,14.1590024 C173,14.1590024 170.055285,15.3795174 169.833333,19.5928911 L165.111382,19.5928911 C165.388618,12.4945899 170.888618,10 177.278049,10 C182.444715,10 188.055285,11.1645207 188.055285,17.8741073 L188.055285,32.6249729 C188.055285,34.842837 188.055285,35.8409976 189.556098,35.8409976 C189.944715,35.8409976 190.388618,35.7858148 191,35.5634603 L191,39.2241939 Z" id="Fill-15" fill="#FEFEFE" mask="url(#mask-6)"></path>
                        <path d="M197,10.6890202 L201.411385,10.6890202 L201.411385,16.869141 L201.521952,16.869141 C203.783332,12.1633221 206.926827,9.83862096 212,10.0087008 L212,15.1110962 C204.44512,15.1110962 201.687399,19.5331722 201.687399,26.9602686 L201.687399,40 L197,40 L197,10.6890202 Z" id="Fill-16" fill="#FEFEFE" mask="url(#mask-6)"></path>
                        <path d="M223.759372,12.931412 L225.364026,12.931412 C226.720488,12.931412 227.963911,12.8638896 227.963911,11.2952289 C227.963911,9.97689513 226.833526,9.77268104 225.794064,9.77268104 L223.759372,9.77268104 L223.759372,12.931412 Z M222.221885,8.52269315 L226.042257,8.52269315 C228.393948,8.52269315 229.501397,9.45483168 229.501397,11.3627513 C229.501397,13.1586825 228.371013,13.9088399 226.901513,14.0677646 L229.727474,18.4542504 L228.076949,18.4542504 L225.386962,14.1813999 L223.759372,14.1813999 L223.759372,18.4542504 L222.221885,18.4542504 L222.221885,8.52269315 Z M225.522935,20.7491887 C229.43341,20.7491887 232.462513,17.6126907 232.462513,13.4542989 C232.462513,9.38648583 229.43341,6.24998789 225.522935,6.24998789 C221.56659,6.24998789 218.536668,9.38648583 218.536668,13.4542989 C218.536668,17.6126907 221.56659,20.7491887 225.522935,20.7491887 L225.522935,20.7491887 Z M225.522935,5 C230.134576,5 234,8.6585614 234,13.4542989 C234,18.3406152 230.134576,22 225.522935,22 C220.888359,22 217,18.3406152 217,13.4542989 C217,8.6585614 220.888359,5 225.522935,5 L225.522935,5 Z" id="Fill-17" fill="#FEFEFE" mask="url(#mask-6)"></path>
                    </g>
                    <g id="Page-1" transform="translate(0.000000, 53.000000)">
                        <g id="Group-3" transform="translate(0.000000, 2.000000)">
                            <mask id="mask-8" fill="white">
                                <use xlink:href="#path-7"></use>
                            </mask>
                            <g id="Clip-2"></g>
                            <path d="M4.22583636,0.263953846 C5.17529091,0.263953846 5.99747273,0.480415385 6.59501818,0.760415385 L6.59501818,2.20510769 C5.94401818,1.82549231 5.10083636,1.55464615 4.25829091,1.55464615 C2.70047273,1.55464615 1.69629091,2.48510769 1.69629091,3.6498 C1.69629091,4.78756923 2.6572,5.74495385 4.24683636,5.74495385 C4.59938182,5.74495385 4.94110909,5.69056923 5.19692727,5.60010769 L5.19692727,4.61633846 L3.85229091,4.61633846 L3.85229091,3.42418462 L6.84001818,3.42418462 L6.84001818,6.45841538 C6.14701818,6.78310769 5.17529091,7.00010769 4.21501818,7.00010769 C1.73956364,7.00010769 -0.000254545455,5.58233846 -0.000254545455,3.65895385 C-0.000254545455,1.72695385 1.76056364,0.263953846 4.22583636,0.263953846" id="Fill-1" fill="#FEFEFE" mask="url(#mask-8)"></path>
                        </g>
                        <polygon id="Fill-4" fill="#FEFEFE" points="12 2 16.879573 2 16.879573 3.34338193 13.7361021 3.34338193 13.7361021 4.71674491 16.4427809 4.71674491 16.4427809 5.99324603 13.7361021 5.99324603 13.7361021 7.65604151 17 7.65604151 17 9 12 9"></polygon>
                        <polygon id="Fill-6" fill="#FEFEFE" points="21 2 22.6706339 2 22.6706339 7.65604151 26 7.65604151 26 9 21 9"></polygon>
                        <g id="Group-10" transform="translate(36.000000, 2.000000)">
                            <mask id="mask-10" fill="white">
                                <use xlink:href="#path-9"></use>
                            </mask>
                            <g id="Clip-9"></g>
                            <path d="M4.69693636,0.263953846 C5.47584545,0.263953846 6.23311818,0.417415385 6.84148182,0.669953846 L6.84148182,2.1238 C6.27575455,1.79910769 5.49748182,1.55464615 4.70775455,1.55464615 C3.21357273,1.55464615 2.18902727,2.43987692 2.18902727,3.62287692 C2.18902727,4.78756923 3.18111818,5.70833846 4.77139091,5.70833846 C5.57193636,5.70833846 6.31902727,5.47410769 6.95920909,5.10364615 L6.95920909,6.56664615 C6.29802727,6.86441538 5.46502727,7.00010769 4.69693636,7.00010769 C2.21066364,7.00010769 0.492481818,5.54626154 0.492481818,3.64064615 C0.492481818,1.74472308 2.21066364,0.263953846 4.69693636,0.263953846" id="Fill-8" fill="#FEFEFE" mask="url(#mask-10)"></path>
                        </g>
                        <path d="M50.406003,5.08401285 C51.3124562,5.08401285 51.8257129,4.86146116 51.8257129,4.21398567 C51.8257129,3.60513961 51.4025013,3.34338193 50.2151076,3.34338193 L49.6010005,3.34338193 L49.6010005,5.08401285 L50.406003,5.08401285 Z M48,2 L50.2853427,2 C51.9463732,2 53.4261131,2.43472531 53.4261131,4.10789886 C53.4261131,5.00675397 52.9128564,5.7418664 51.9463732,6.0411004 L54,9 L52.1576788,9 L50.315958,6.23482415 L49.6010005,6.23482415 L49.6010005,9 L48,9 L48,2 Z" id="Fill-11" fill="#FEFEFE"></path>
                        <polygon id="Fill-13" fill="#FEFEFE" points="58 2 62.879573 2 62.879573 3.34338193 59.7361021 3.34338193 59.7361021 4.71674491 62.4427809 4.71674491 62.4427809 5.99324603 59.7361021 5.99324603 59.7361021 7.65604151 63 7.65604151 63 9 58 9"></polygon>
                        <g id="Group-17" transform="translate(68.000000, 2.000000)">
                            <mask id="mask-12" fill="white">
                                <use xlink:href="#path-11"></use>
                            </mask>
                            <g id="Clip-16"></g>
                            <path d="M4.35450909,0.263953846 C5.13341818,0.263953846 5.89069091,0.417415385 6.49905455,0.669953846 L6.49905455,2.1238 C5.93332727,1.79910769 5.15505455,1.55464615 4.36532727,1.55464615 C2.87114545,1.55464615 1.8466,2.43987692 1.8466,3.62287692 C1.8466,4.78756923 2.83869091,5.70833846 4.42896364,5.70833846 C5.22950909,5.70833846 5.9766,5.47410769 6.61678182,5.10364615 L6.61678182,6.56664615 C5.9556,6.86441538 5.1226,7.00010769 4.35450909,7.00010769 C1.86823636,7.00010769 0.150054545,5.54626154 0.150054545,3.64064615 C0.150054545,1.74472308 1.86823636,0.263953846 4.35450909,0.263953846" id="Fill-15" fill="#FEFEFE" mask="url(#mask-12)"></path>
                        </g>
                        <mask id="mask-14" fill="white">
                            <use xlink:href="#path-13"></use>
                        </mask>
                        <g id="Clip-19"></g>
                        <polygon id="Fill-18" fill="#FEFEFE" mask="url(#mask-14)" points="79 9 81 9 81 2 79 2"></polygon>
                        <path d="M88.8233,5.94481509 C88.4307417,5.45185734 88.0381834,4.9392966 87.6683727,4.44576229 L87.6456252,4.45556379 C87.656674,4.95832304 87.6683727,5.61617659 87.6683727,6.19619471 L87.6683727,9 L86,9 L86,2 L87.6683727,2 L90.0113738,4.95832304 L92.3550248,2 L94,2 L94,9 L92.2672841,9 L92.2672841,6.19619471 C92.2672841,5.61617659 92.277683,4.95832304 92.2893818,4.45556379 L92.2672841,4.44576229 C91.8968235,4.9392966 91.5042652,5.45185734 91.1117069,5.94481509 L89.9678284,7.38505889 L88.8233,5.94481509 Z" id="Fill-20" fill="#FEFEFE" mask="url(#mask-14)"></path>
                        <polygon id="Fill-21" fill="#FEFEFE" mask="url(#mask-14)" points="99 9 101 9 101 2 99 2"></polygon>
                        <polygon id="Fill-22" fill="#FEFEFE" mask="url(#mask-14)" points="105 2 109.879573 2 109.879573 3.34338193 106.736102 3.34338193 106.736102 4.71674491 109.442781 4.71674491 109.442781 5.99324603 106.736102 5.99324603 106.736102 7.65604151 110 7.65604151 110 9 105 9"></polygon>
                        <path d="M118.084174,6.17693575 C117.582765,5.56746293 117.113172,4.97759473 116.633397,4.36869852 L116.611763,4.37850082 C116.621943,5.04563427 116.633397,5.72257002 116.633397,6.39950577 L116.633397,9 L115,9 L115,2 L116.600945,2 L118.916462,4.82306425 C119.417871,5.43253707 119.887465,6.02182867 120.367876,6.63130148 L120.388874,6.62149918 C120.378057,5.95436573 120.367876,5.27742998 120.367876,4.60107084 L120.367876,2 L122,2 L122,9 L120.399691,9 L118.084174,6.17693575 Z" id="Fill-23" fill="#FEFEFE" mask="url(#mask-14)"></path>
                        <polygon id="Fill-24" fill="#FEFEFE" mask="url(#mask-14)" points="128.612517 3.34338193 126 3.34338193 126 2 133 2 133 3.34338193 130.387483 3.34338193 130.387483 9 128.612517 9"></polygon>
                        <path d="M142.317085,5.5 C142.317085,4.29920064 141.322606,3.35075939 140,3.35075939 C138.676763,3.35075939 137.682284,4.29920064 137.682284,5.5 C137.682284,6.70079936 138.676763,7.64868106 140,7.64868106 C141.322606,7.64868106 142.317085,6.70079936 142.317085,5.5 M136,5.5 C136,3.52030376 137.725193,2 140,2 C142.275438,2 144,3.52030376 144,5.5 C144,7.47969624 142.275438,9 140,9 C137.725193,9 136,7.47969624 136,5.5" id="Fill-25" fill="#FEFEFE" mask="url(#mask-14)"></path>
                        <path d="M157.3809,5.2483321 C158.81729,5.2483321 159.256187,4.96812454 159.256187,4.31084754 C159.256187,3.53710567 158.653112,3.34338193 157.337076,3.34338193 L156.744467,3.34338193 L156.744467,5.2483321 L157.3809,5.2483321 Z M155,2 L157.358661,2 C159.300665,2 161,2.47393131 161,4.23301211 C161,5.84795322 159.661725,6.49542871 157.292598,6.49542871 L156.744467,6.49542871 L156.744467,9 L155,9 L155,2 Z" id="Fill-26" fill="#FEFEFE" mask="url(#mask-14)"></path>
                        <polygon id="Fill-27" fill="#FEFEFE" mask="url(#mask-14)" points="165 2 169.879573 2 169.879573 3.34338193 166.736102 3.34338193 166.736102 4.71674491 169.442781 4.71674491 169.442781 5.99324603 166.736102 5.99324603 166.736102 7.65604151 170 7.65604151 170 9 165 9"></polygon>
                        <path d="M175.224647,7.02030376 C175.988447,7.48920863 176.888785,7.69568345 177.44661,7.69568345 C178.013187,7.69568345 178.434473,7.47969624 178.434473,6.97330136 C178.434473,6.34436451 177.768701,6.28784972 176.859027,6.00639488 C175.880499,5.69696243 175,5.23701039 175,4.05467626 C175,2.78840927 175.997783,2 177.485121,2 C178.179484,2 179.030809,2.16898481 179.647567,2.48792966 L179.647567,3.96123102 C178.89427,3.51079137 178.02369,3.30431655 177.475201,3.30431655 C176.947135,3.30431655 176.565527,3.49176659 176.565527,3.94220624 C176.565527,4.54260592 177.221379,4.58960831 178.07212,4.86211031 C179.138756,5.19952038 180,5.6784972 180,6.87929656 C180,8.20207834 178.953203,9 177.426187,9 C176.721905,9 175.87058,8.83101519 175.224647,8.52158273 L175.224647,7.02030376 Z" id="Fill-28" fill="#FEFEFE" mask="url(#mask-14)"></path>
                        <polygon id="Fill-29" fill="#FEFEFE" mask="url(#mask-14)" points="186.612517 3.34338193 184 3.34338193 184 2 191 2 191 3.34338193 188.387483 3.34338193 188.387483 9 186.612517 9"></polygon>
                        <path d="M196.921717,6.32130796 L199.024916,6.32130796 L198.700852,5.53834116 C198.474522,4.98772753 198.194181,4.29124454 197.989069,3.75965736 L197.967851,3.75965736 C197.763382,4.29124454 197.482398,4.98772753 197.234207,5.5769706 L196.921717,6.32130796 Z M197.169908,2 L198.830735,2 L202,9 L200.167497,9 L199.541874,7.5303517 L196.393827,7.5303517 L195.757274,9 L194,9 L197.169908,2 Z" id="Fill-30" fill="#FEFEFE" mask="url(#mask-14)"></path>
                        <path d="M208.678211,0.980081174 C208.262703,0.980081174 207.974457,1.21554792 207.750477,1.45101467 L207.728843,1.44146113 L207.728843,0.377083984 C207.942642,0.188261005 208.262703,0.0280986575 208.678211,0.0280986575 C208.956277,0.0280986575 209.244523,0.112956603 209.585583,0.254011864 C209.87383,0.377083984 210.076175,0.4709335 210.321789,0.4709335 C210.737933,0.4709335 211.025543,0.23546675 211.250159,0 L211.271157,0.0089915704 L211.271157,1.07393069 C211.057995,1.26275367 210.737933,1.42291602 210.321789,1.42291602 C210.043723,1.42291602 209.756113,1.33805807 209.414417,1.19700281 C209.126807,1.07393069 208.923825,0.980081174 208.678211,0.980081174 L208.678211,0.980081174 Z M209.084174,6.24801748 C208.582765,5.65401186 208.112535,5.07911333 207.632761,4.48566968 L207.611126,4.49522323 C207.621943,5.14542616 207.632761,5.80518264 207.632761,6.46493912 L207.632761,9 L206,9 L206,2.17708398 L207.600945,2.17708398 L209.915826,4.92850453 C210.417871,5.52251015 210.887465,6.09684671 211.367876,6.69085233 L211.388874,6.68186076 C211.378057,6.03109585 211.367876,5.37133937 211.367876,4.71214486 L211.367876,2.17708398 L213,2.17708398 L213,9 L211.399055,9 L209.084174,6.24801748 Z" id="Fill-31" fill="#FEFEFE" mask="url(#mask-14)"></path>
                        <path d="M219.921717,6.32130796 L222.024916,6.32130796 L221.700852,5.53834116 C221.474522,4.98772753 221.194181,4.29124454 220.989069,3.75965736 L220.967851,3.75965736 C220.763382,4.29124454 220.482398,4.98772753 220.234207,5.5769706 L219.921717,6.32130796 Z M220.169908,2 L221.830735,2 L225,9 L223.167497,9 L222.541874,7.5303517 L219.393827,7.5303517 L218.757274,9 L217,9 L220.169908,2 Z" id="Fill-32" fill="#FEFEFE" mask="url(#mask-14)"></path>
                        <path d="M229.224647,7.02030376 C229.988447,7.48920863 230.888785,7.69568345 231.446026,7.69568345 C232.013187,7.69568345 232.434473,7.47969624 232.434473,6.97330136 C232.434473,6.34436451 231.768701,6.28784972 230.859027,6.00639488 C229.880499,5.69696243 229,5.23701039 229,4.05467626 C229,2.78840927 229.997783,2 231.485121,2 C232.179484,2 233.030809,2.16898481 233.647567,2.48792966 L233.647567,3.96123102 C232.89427,3.51079137 232.02369,3.30431655 231.475201,3.30431655 C230.947135,3.30431655 230.565527,3.49176659 230.565527,3.94220624 C230.565527,4.54260592 231.221379,4.58960831 232.072704,4.86211031 C233.138756,5.19952038 234,5.6784972 234,6.87929656 C234,8.20207834 232.953203,9 231.426187,9 C230.721905,9 229.87058,8.83101519 229.224647,8.52158273 L229.224647,7.02030376 Z" id="Fill-33" fill="#FEFEFE" mask="url(#mask-14)"></path>
                    </g>
                </g>
            </g>
        </g>
    </g>
</svg>